# xmcd
#
# Track frame offsets: 
#        150
#        9155
#        21363
#        27076
#        37862
#        49244
#        60372
#        76432
#        98614
#        124792
#        140969
#        154067
#        156827
#        164808
#        169800
#        194247
#        220272
#        235674
#        244232
#        248926
#        254288
#
# Disc length: 3410 seconds
#
# Revision: 0
# Processed by: cddbd v1.5.2PL0 Copyright (c) Steve Scherf et al.
# Submitted via: ExactAudioCopy v0.95b4
#
DISCID=200d5015
DTITLE=The Beatles  - AB  Road - Complete Purple Chick Set v1.1 Jan.29
DTITLE=Various Artist - D3  FLAC
DYEAR=1900
DGENRE=
TTITLE0=For You Blue 29.20 continued
TTITLE1=For You Blue 29.21
TTITLE2=For You Blue 29.22
TTITLE3=Something 29.23
TTITLE4=All Things Must Pass 29.24
TTITLE5=All Things Must Pass 29.25
TTITLE6=All Things Must Pass 29.26
TTITLE7=All Things Must Pass 29.27
TTITLE8=Let It Down 29.28
TTITLE9=Let It Down 29.29
TTITLE10=Let It Down 29.30
TTITLE11=Get Back 27.63P
TTITLE12=Let It Down 29.31
TTITLE13=Singing The Blues 29.32
TTITLE14=Teddy Boy 24.33P
TTITLE15=I Want You (She's So Heavy) 29.33
TTITLE16=Something 29.34
TTITLE17=Sexy Sadie 29.35
TTITLE18=Old Brown Shoe 29.36
TTITLE19=I Want You (She's So Heavy) 29.37
TTITLE20=She Gets Heavy 29.38
EXTD=
EXTT0=
EXTT1=
EXTT2=
EXTT3=
EXTT4=
EXTT5=
EXTT6=
EXTT7=
EXTT8=
EXTT9=
EXTT10=
EXTT11=
EXTT12=
EXTT13=
EXTT14=
EXTT15=
EXTT16=
EXTT17=
EXTT18=
EXTT19=
EXTT20=
PLAYORDER=
